<?xml version="1.0" standalone="no"?>
<!DOCTYPE svg PUBLIC "-//W3C//DTD SVG 20010904//EN"
 "http://www.w3.org/TR/2001/REC-SVG-20010904/DTD/svg10.dtd">
<svg version="1.0" xmlns="http://www.w3.org/2000/svg"
 width="290.000000pt" height="174.000000pt" viewBox="0 0 290.000000 174.000000"
 preserveAspectRatio="xMidYMid meet">

<g transform="translate(0.000000,174.000000) scale(0.100000,-0.100000)"
fill="#000000" stroke="none">
<path d="M965 1713 c4 -16 13 -50 20 -78 28 -98 26 -104 -35 -147 -30 -20 -59
-41 -65 -45 -31 -25 -110 -73 -119 -73 -6 0 -29 7 -51 15 -261 92 -427 149
-458 155 -62 12 -136 -11 -177 -55 -24 -25 -25 -32 -25 -148 0 -102 3 -126 19
-149 33 -49 45 -55 421 -183 96 -32 122 -45 131 -65 14 -28 54 -207 54 -239 0
-16 -52 -60 -197 -168 -109 -80 -205 -155 -213 -167 -28 -39 -38 -81 -39 -164
-1 -71 2 -88 24 -122 49 -77 169 -105 252 -59 43 24 40 22 263 198 93 74 172
130 180 127 27 -7 375 -128 378 -131 2 -2 10 -32 18 -66 7 -35 19 -83 25 -106
l12 -43 67 0 68 0 -8 33 c-5 17 -11 41 -14 52 -3 11 -19 76 -36 144 -17 69
-31 126 -33 127 -1 1 -72 25 -157 54 -85 28 -162 54 -170 57 -8 3 -43 16 -78
28 l-62 23 -108 -82 c-100 -76 -228 -176 -297 -232 -16 -13 -49 -33 -72 -45
-36 -18 -47 -19 -85 -9 -76 21 -115 77 -98 142 13 45 27 57 278 243 l212 157
-6 37 c-3 20 -12 63 -19 96 -8 33 -24 110 -36 170 -12 61 -27 115 -33 122 -6
6 -60 28 -121 48 -60 20 -119 40 -130 45 -11 5 -76 28 -145 51 -141 48 -172
65 -190 109 -25 61 35 130 114 130 14 0 55 -11 93 -25 188 -67 450 -155 463
-155 8 1 89 52 180 114 175 120 170 114 150 186 -5 19 -14 54 -20 78 l-11 42
-60 0 -59 0 5 -27z"/>
<path d="M1314 1707 c4 -20 13 -58 21 -85 l15 -49 92 -33 c51 -18 149 -52 217
-77 l123 -44 77 32 c42 17 90 37 106 44 17 7 60 26 98 41 l67 28 0 66 c0 107
-2 110 -74 110 l-62 0 3 -82 c2 -46 0 -88 -4 -94 -4 -5 -54 -30 -111 -54
l-104 -44 -96 34 c-53 18 -140 48 -192 66 l-95 33 -21 68 c-18 55 -26 69 -44
71 -21 3 -22 1 -16 -31z"/>
<path d="M2334 1673 c13 -131 -5 -109 296 -352 63 -52 125 -105 137 -120 31
-35 29 -76 -6 -152 -16 -35 -57 -128 -91 -206 -34 -78 -70 -149 -80 -158 -23
-21 -38 -21 -340 -12 l-245 8 -145 -121 c-80 -67 -156 -132 -169 -145 l-25
-24 23 -83 c13 -46 29 -103 36 -128 7 -25 21 -75 31 -113 16 -63 19 -67 46
-67 26 0 28 3 22 23 -4 12 -13 45 -20 72 -6 28 -24 90 -38 140 -14 50 -26 93
-26 97 0 4 49 49 108 100 l109 93 242 -8 c133 -5 257 -6 274 -3 30 6 67 36
145 119 19 20 55 86 86 158 30 68 65 149 78 179 58 130 61 139 55 176 -9 56
-41 89 -245 255 -105 85 -193 160 -196 167 -3 7 -9 48 -12 92 -7 77 -8 80 -32
80 -24 0 -24 -1 -18 -67z"/>
<path d="M1106 1273 c-191 -135 -175 -99 -132 -288 53 -235 59 -253 80 -264
20 -10 344 -122 414 -142 33 -10 37 -8 135 73 56 45 130 105 165 133 69 55 68
52 39 150 -8 28 -29 100 -46 160 -41 146 -45 152 -83 164 -34 10 -291 100
-341 120 -16 6 -36 11 -47 11 -10 0 -93 -53 -184 -117z m299 -119 c72 -25 145
-51 163 -57 39 -13 49 -29 73 -117 9 -36 24 -89 32 -119 8 -30 13 -59 10 -65
-4 -10 -45 -44 -159 -135 l-42 -32 -148 51 c-82 28 -170 58 -196 66 -26 8 -50
18 -52 23 -3 5 -13 42 -22 82 -9 41 -22 100 -29 132 l-13 58 77 56 c114 85
142 103 160 103 9 0 75 -21 146 -46z"/>
<path d="M2185 1365 c-52 -24 -144 -65 -207 -93 -21 -10 -38 -21 -38 -27 0 -5
18 -68 41 -140 22 -71 45 -146 51 -166 9 -34 13 -37 55 -43 98 -13 353 -19
353 -8 0 6 25 63 55 126 30 63 55 120 55 126 0 7 -12 22 -27 34 -16 11 -80 65
-144 119 -64 53 -123 97 -130 96 -8 0 -36 -11 -64 -24z m118 -260 c101 -84
101 -85 73 -145 -14 -31 -36 -34 -183 -25 l-113 7 -11 41 c-6 23 -19 67 -29
97 -10 30 -16 58 -14 62 5 7 89 48 124 60 22 8 47 -8 153 -97z"/>
</g>
</svg>
