<?xml version="1.0" standalone="no"?>
<!DOCTYPE svg PUBLIC "-//W3C//DTD SVG 20010904//EN"
 "http://www.w3.org/TR/2001/REC-SVG-20010904/DTD/svg10.dtd">
<svg version="1.0" xmlns="http://www.w3.org/2000/svg"
 width="131.000000pt" height="190.000000pt" viewBox="0 0 131.000000 190.000000"
 preserveAspectRatio="xMidYMid meet">

<g transform="translate(0.000000,190.000000) scale(0.100000,-0.100000)"
fill="#000000" stroke="none">
<path d="M590 1861 c-25 -15 -91 -54 -147 -87 l-103 -59 0 -186 0 -187 93 -53
c132 -77 169 -98 196 -111 26 -14 15 -19 219 100 l112 65 0 186 0 186 -148 88
c-82 48 -155 87 -163 86 -8 0 -34 -13 -59 -28z"/>
<path d="M153 1208 l-153 -91 0 -183 0 -183 57 -34 c216 -127 255 -148 269
-143 9 3 80 44 160 91 l144 86 0 184 0 184 -72 42 c-40 23 -110 64 -154 91
-45 26 -86 48 -90 47 -5 0 -78 -42 -161 -91z"/>
<path d="M488 613 l-148 -87 0 -186 0 -186 131 -77 c176 -104 182 -104 358 -1
l131 77 0 187 0 187 -148 87 c-82 47 -155 86 -163 86 -8 -1 -80 -40 -161 -87z"/>
</g>
</svg>
