<?xml version="1.0" standalone="no"?>
<!DOCTYPE svg PUBLIC "-//W3C//DTD SVG 20010904//EN"
 "http://www.w3.org/TR/2001/REC-SVG-20010904/DTD/svg10.dtd">
<svg version="1.0" xmlns="http://www.w3.org/2000/svg"
 width="174.000000pt" height="254.000000pt" viewBox="0 0 174.000000 254.000000"
 preserveAspectRatio="xMidYMid meet">

<g transform="translate(0.000000,254.000000) scale(0.100000,-0.100000)"
fill="#000000" stroke="none">
<path d="M653 2412 l-203 -117 0 -242 0 -242 83 -49 c45 -26 139 -81 210 -121
l127 -74 208 120 207 119 3 245 2 244 -203 118 c-112 64 -210 117 -218 117 -8
0 -105 -53 -216 -118z"/>
<path d="M205 1631 l-200 -117 -2 -245 -3 -244 209 -120 c115 -65 213 -118
217 -117 5 1 100 55 212 119 l202 117 0 245 0 246 -204 118 c-112 64 -210 117
-217 116 -8 0 -104 -53 -214 -118z"/>
<path d="M660 851 l-205 -118 -3 -245 -2 -245 210 -122 210 -121 210 121 210
121 -2 246 -3 245 -205 119 c-112 65 -207 118 -210 118 -3 0 -97 -54 -210
-119z"/>
</g>
</svg>
