<?xml version="1.0" standalone="no"?>
<!DOCTYPE svg PUBLIC "-//W3C//DTD SVG 20010904//EN"
 "http://www.w3.org/TR/2001/REC-SVG-20010904/DTD/svg10.dtd">
<svg version="1.0" xmlns="http://www.w3.org/2000/svg"
 width="225.000000pt" height="225.000000pt" viewBox="0 0 225.000000 225.000000"
 preserveAspectRatio="xMidYMid meet">

<g transform="translate(0.000000,225.000000) scale(0.100000,-0.100000)"
fill="#000000" stroke="none">
<path d="M991 2239 c-376 -46 -702 -278 -871 -618 -81 -161 -113 -303 -113
-496 0 -315 105 -569 327 -791 168 -168 360 -269 596 -315 93 -18 318 -15 411
5 236 51 409 144 575 310 168 168 269 360 315 596 18 93 15 318 -5 411 -34
158 -91 293 -176 420 -56 82 -207 233 -289 289 -128 86 -294 154 -434 179 -87
16 -253 21 -336 10z m236 -291 c31 -29 30 -71 -3 -97 -33 -26 -55 -26 -85 -3
-45 37 -17 122 39 122 14 0 36 -10 49 -22z m273 -8 c27 -27 35 -65 20 -101
-35 -84 -160 -56 -160 36 0 72 91 114 140 65z m-505 -90 c41 -46 -29 -116 -75
-75 -22 20 -27 64 -8 83 19 19 63 14 83 -8z m766 -49 c24 -24 29 -38 29 -76 0
-122 -161 -147 -200 -31 -33 102 95 182 171 107z m-946 -121 c37 -41 -24 -97
-63 -58 -18 18 -15 55 6 67 25 15 37 13 57 -9z m1105 -125 c78 -40 77 -174 -1
-216 -61 -32 -148 2 -169 67 -36 107 71 200 170 149z m-1488 -310 l3 -275 27
-26 c20 -21 39 -28 80 -32 67 -5 103 9 128 50 19 31 20 51 20 296 l0 262 91 0
90 0 -3 -287 -3 -288 -30 -55 c-33 -61 -99 -112 -168 -131 -23 -6 -82 -9 -132
-7 -106 5 -173 34 -224 95 -55 66 -61 107 -61 405 l0 268 90 0 89 0 3 -275z
m899 259 c40 -12 67 -29 105 -68 60 -59 79 -111 71 -197 -13 -148 -130 -239
-305 -239 l-62 0 0 -120 0 -120 -90 0 -90 0 0 380 0 380 158 0 c116 0 173 -4
213 -16z m576 -284 c7 0 28 -14 47 -30 102 -90 28 -265 -105 -247 -118 16
-161 168 -71 250 24 22 70 37 97 32 11 -3 25 -5 32 -5z m-133 -358 c47 -28 69
-66 74 -129 3 -48 0 -64 -20 -92 -33 -49 -69 -72 -120 -78 -103 -12 -192 87
-172 192 3 19 21 52 40 73 52 61 128 74 198 34z m-825 -198 c71 -36 104 -86
109 -168 3 -50 -1 -69 -20 -106 -74 -138 -261 -147 -341 -18 -34 55 -43 108
-28 166 22 81 111 151 192 152 19 0 59 -12 88 -26z m472 -31 c16 -10 42 -35
57 -57 22 -32 27 -50 27 -101 0 -80 -35 -137 -102 -167 -172 -76 -327 138
-206 283 57 67 152 85 224 42z"/>
<path d="M1140 1259 l0 -122 56 7 c99 11 134 44 134 126 0 69 -58 109 -157
110 l-33 0 0 -121z"/>
</g>
</svg>
