<?xml version="1.0" standalone="no"?>
<!DOCTYPE svg PUBLIC "-//W3C//DTD SVG 20010904//EN"
 "http://www.w3.org/TR/2001/REC-SVG-20010904/DTD/svg10.dtd">
<svg version="1.0" xmlns="http://www.w3.org/2000/svg"
 width="32.000000pt" height="32.000000pt" viewBox="0 0 32.000000 32.000000"
 preserveAspectRatio="xMidYMid meet">

<g transform="translate(0.000000,32.000000) scale(0.100000,-0.100000)"
fill="#000000" stroke="none">
<path d="M40 250 c-8 -5 -10 -10 -5 -10 6 0 2 -7 -9 -15 -21 -16 -13 -35 14
-35 12 0 30 -16 45 -40 28 -44 31 -60 13 -78 -10 -10 -8 -12 9 -9 29 4 37 13
38 40 0 27 33 34 74 16 24 -11 28 -17 20 -31 -6 -12 -6 -18 0 -18 6 0 14 12
17 26 6 23 8 24 16 10 6 -11 6 -22 -2 -32 -10 -11 -9 -14 4 -14 12 0 16 9 16
36 0 22 4 33 11 29 7 -5 8 5 4 32 -13 77 -7 73 -111 73 -66 0 -101 4 -117 15
-15 9 -27 11 -37 5z m87 -162 c-3 -8 -6 -5 -6 6 -1 11 2 17 5 13 3 -3 4 -12 1
-19z"/>
</g>
</svg>
