<?xml version="1.0" standalone="no"?>
<!DOCTYPE svg PUBLIC "-//W3C//DTD SVG 20010904//EN"
 "http://www.w3.org/TR/2001/REC-SVG-20010904/DTD/svg10.dtd">
<svg version="1.0" xmlns="http://www.w3.org/2000/svg"
 width="32.000000pt" height="32.000000pt" viewBox="0 0 32.000000 32.000000"
 preserveAspectRatio="xMidYMid meet">

<g transform="translate(0.000000,32.000000) scale(0.100000,-0.100000)"
fill="#000000" stroke="none">
<path d="M261 281 c-7 -5 -13 -12 -13 -17 -1 -15 -50 -74 -61 -74 -5 0 -21 12
-34 26 -20 22 -30 25 -60 21 -48 -8 -73 -33 -72 -71 0 -26 2 -28 9 -11 4 12
16 27 26 35 16 14 16 13 6 -7 -17 -32 -16 -49 3 -33 10 8 15 9 15 1 0 -6 11
-13 25 -17 14 -3 25 -12 25 -19 0 -8 12 -15 27 -17 30 -3 44 -35 23 -48 -19
-12 38 -22 58 -11 15 9 15 10 -5 11 -38 0 -31 24 20 72 44 41 49 50 44 77 -4
17 -3 31 2 31 12 0 2 37 -13 49 -6 5 -18 6 -25 2z"/>
</g>
</svg>
