<?xml version="1.0" standalone="no"?>
<!DOCTYPE svg PUBLIC "-//W3C//DTD SVG 20010904//EN"
 "http://www.w3.org/TR/2001/REC-SVG-20010904/DTD/svg10.dtd">
<svg version="1.0" xmlns="http://www.w3.org/2000/svg"
 width="32.000000pt" height="32.000000pt" viewBox="0 0 32.000000 32.000000"
 preserveAspectRatio="xMidYMid meet">

<g transform="translate(0.000000,32.000000) scale(0.100000,-0.100000)"
fill="#000000" stroke="none">
<path d="M236 267 c2 -7 -6 -25 -20 -40 -21 -23 -33 -27 -80 -27 -49 0 -57 -3
-76 -30 -12 -16 -28 -30 -36 -30 -8 0 -14 -5 -14 -11 0 -6 9 -9 20 -6 16 4 18
2 10 -13 -13 -25 -13 -60 1 -60 6 0 9 7 6 15 -4 8 -2 17 3 20 6 4 10 -3 10
-14 0 -12 7 -21 15 -21 13 0 14 4 4 22 -9 17 -9 23 0 26 6 2 18 10 26 18 10
10 26 13 54 8 36 -6 40 -10 43 -38 2 -22 9 -32 23 -34 16 -3 18 -1 8 9 -17 17
-16 41 2 76 8 15 17 40 20 55 3 17 12 28 27 30 34 5 32 24 -6 42 -41 19 -47
20 -40 3z"/>
</g>
</svg>
