<?xml version="1.0" encoding="UTF-8"?>
<!DOCTYPE svg PUBLIC "-//W3C//DTD SVG 1.1//EN" "http://www.w3.org/Graphics/SVG/1.1/DTD/svg11.dtd">
<svg xmlns="http://www.w3.org/2000/svg" version="1.1" width="32px" height="32px" style="shape-rendering:geometricPrecision; text-rendering:geometricPrecision; image-rendering:optimizeQuality; fill-rule:evenodd; clip-rule:evenodd" xmlns:xlink="http://www.w3.org/1999/xlink">
<g><path style="opacity:1" fill="#4b4b4b" d="M 20.5,20.5 C 21.388,17.9455 21.7214,15.2788 21.5,12.5C 22.1614,13.7175 22.8281,15.0508 23.5,16.5C 25.2828,15.6518 25.7828,14.3185 25,12.5C 23.549,10.5359 21.7157,9.20261 19.5,8.5C 16.7565,5.94054 14.0898,5.94054 11.5,8.5C 10.3285,9.34464 8.99522,10.0113 7.5,10.5C 7.5,9.16667 7.5,7.83333 7.5,6.5C 8.79443,3.26439 11.2944,1.93106 15,2.5C 24.9957,2.82111 29.6623,7.82111 29,17.5C 26.8038,20.1252 23.9705,21.1252 20.5,20.5 Z"/></g>
<g><path style="opacity:1" fill="#a6a6a6" d="M 19.5,8.5 C 16.8033,7.36968 14.1367,7.36968 11.5,8.5C 14.0898,5.94054 16.7565,5.94054 19.5,8.5 Z"/></g>
<g><path style="opacity:1" fill="#262626" d="M 19.5,8.5 C 20.6005,9.60486 21.2671,10.9382 21.5,12.5C 21.7214,15.2788 21.388,17.9455 20.5,20.5C 18.7085,20.634 17.0418,20.3007 15.5,19.5C 13.2279,18.5589 11.2279,17.2255 9.5,15.5C 8.05817,14.1805 7.39151,12.5138 7.5,10.5C 8.99522,10.0113 10.3285,9.34464 11.5,8.5C 14.1367,7.36968 16.8033,7.36968 19.5,8.5 Z"/></g>
<g><path style="opacity:1" fill="#a0a0a0" d="M 19.5,8.5 C 21.7157,9.20261 23.549,10.5359 25,12.5C 25.7828,14.3185 25.2828,15.6518 23.5,16.5C 22.8281,15.0508 22.1614,13.7175 21.5,12.5C 21.2671,10.9382 20.6005,9.60486 19.5,8.5 Z"/></g>
<g><path style="opacity:1" fill="#4d4d4d" d="M 7.5,6.5 C 7.5,7.83333 7.5,9.16667 7.5,10.5C 7.39151,12.5138 8.05817,14.1805 9.5,15.5C 8.16667,16.1667 7.16667,17.1667 6.5,18.5C 6.5,18.8333 6.5,19.1667 6.5,19.5C 5.40168,20.6009 5.23502,21.9343 6,23.5C 7.61552,24.8009 9.11552,24.8009 10.5,23.5C 10.8333,23.5 11.1667,23.5 11.5,23.5C 13.1667,22.5 14.5,21.1667 15.5,19.5C 17.0418,20.3007 18.7085,20.634 20.5,20.5C 19.3995,21.6049 18.7329,22.9382 18.5,24.5C 14.4865,28.09 9.81988,29.2566 4.5,28C 3.69194,27.6924 3.02527,27.1924 2.5,26.5C 1.42517,23.562 1.2585,20.562 2,17.5C 4.63932,14.0864 6.47265,10.4197 7.5,6.5 Z"/></g>
<g><path style="opacity:1" fill="#898989" d="M 13.5,13.5 C 15.515,12.1475 17.1817,12.6475 18.5,15C 16.7184,15.1218 15.0518,14.6218 13.5,13.5 Z"/></g>
<g><path style="opacity:1" fill="#b9b9b9" d="M 9.5,15.5 C 11.2279,17.2255 13.2279,18.5589 15.5,19.5C 14.5,21.1667 13.1667,22.5 11.5,23.5C 11.1667,22.1667 10.8333,22.1667 10.5,23.5C 9.11552,24.8009 7.61552,24.8009 6,23.5C 5.23502,21.9343 5.40168,20.6009 6.5,19.5C 7.83333,19.1667 7.83333,18.8333 6.5,18.5C 7.16667,17.1667 8.16667,16.1667 9.5,15.5 Z"/></g>
<g><path style="opacity:1" fill="#5c5c5c" d="M 18.5,24.5 C 20.0816,23.1242 21.9149,22.1242 24,21.5C 27.9415,22.8811 28.4415,25.0478 25.5,28C 23.1902,28.4966 20.8568,28.6633 18.5,28.5C 18.5,27.1667 18.5,25.8333 18.5,24.5 Z"/></g>
<g><path style="opacity:1" fill="#b1b1b1" d="M 21.5,24.5 C 26.1001,24.3451 26.4334,25.0118 22.5,26.5C 20.279,26.5613 19.9456,25.8946 21.5,24.5 Z"/></g>
</svg>
