<?xml version="1.0" standalone="no"?>
<!DOCTYPE svg PUBLIC "-//W3C//DTD SVG 20010904//EN"
 "http://www.w3.org/TR/2001/REC-SVG-20010904/DTD/svg10.dtd">
<svg version="1.0" xmlns="http://www.w3.org/2000/svg"
 width="32.000000pt" height="32.000000pt" viewBox="0 0 32.000000 32.000000"
 preserveAspectRatio="xMidYMid meet">

<g transform="translate(0.000000,32.000000) scale(0.100000,-0.100000)"
fill="#000000" stroke="none">
<path d="M180 256 c0 -19 -5 -38 -11 -42 -14 -8 -29 14 -29 44 0 13 -6 22 -15
22 -16 0 -21 -26 -6 -32 15 -5 17 -40 4 -45 -7 -3 -13 2 -13 11 0 9 -7 16 -15
16 -19 0 -19 -20 0 -34 10 -8 12 -16 5 -26 -7 -12 -12 -12 -22 -2 -20 20 -48
15 -48 -9 0 -19 4 -20 34 -15 28 5 34 3 39 -13 5 -22 -17 -47 -47 -52 -25 -5
-32 -27 -11 -35 12 -5 25 3 42 25 26 34 43 40 43 16 0 -8 -4 -15 -10 -15 -5 0
-10 -7 -10 -15 0 -8 7 -15 15 -15 9 0 15 9 15 25 0 16 6 25 15 25 15 0 19 -16
16 -52 -2 -11 4 -18 14 -18 13 0 15 7 9 34 -7 43 2 62 22 45 8 -6 14 -20 14
-30 0 -12 7 -19 20 -19 28 0 26 33 -2 45 -27 12 -38 55 -14 55 8 0 18 -4 21
-10 12 -19 45 -11 45 11 0 19 -4 21 -36 14 -26 -4 -39 -2 -45 6 -9 16 7 39 27
39 8 0 14 7 14 15 0 22 -23 18 -38 -5 -7 -11 -17 -20 -22 -20 -15 0 -12 27 5
44 21 21 19 46 -5 46 -16 0 -20 -7 -20 -34z m-36 -97 c-3 -5 -10 -7 -15 -3 -5
3 -7 10 -3 15 3 5 10 7 15 3 5 -3 7 -10 3 -15z m42 -20 c10 -17 -13 -36 -27
-22 -12 12 -4 33 11 33 5 0 12 -5 16 -11z"/>
</g>
</svg>
