<?xml version="1.0" standalone="no"?>
<!DOCTYPE svg PUBLIC "-//W3C//DTD SVG 20010904//EN"
 "http://www.w3.org/TR/2001/REC-SVG-20010904/DTD/svg10.dtd">
<svg version="1.0" xmlns="http://www.w3.org/2000/svg"
 width="32.000000pt" height="32.000000pt" viewBox="0 0 32.000000 32.000000"
 preserveAspectRatio="xMidYMid meet">

<g transform="translate(0.000000,32.000000) scale(0.100000,-0.100000)"
fill="#000000" stroke="none">
<path d="M144 285 c-4 -9 -2 -21 4 -27 15 -15 44 -1 40 19 -4 23 -36 29 -44 8z"/>
<path d="M100 185 c0 -67 17 -73 23 -7 2 26 4 -1 5 -60 2 -87 5 -108 17 -108
10 0 15 17 18 68 l3 67 2 -67 c2 -53 5 -68 17 -68 12 0 15 19 17 108 1 59 3
86 5 60 6 -66 23 -60 23 7 l0 55 -65 0 -65 0 0 -55z"/>
</g>
</svg>
