<?xml version="1.0" standalone="no"?>
<!DOCTYPE svg PUBLIC "-//W3C//DTD SVG 20010904//EN"
 "http://www.w3.org/TR/2001/REC-SVG-20010904/DTD/svg10.dtd">
<svg version="1.0" xmlns="http://www.w3.org/2000/svg"
 width="32.000000pt" height="32.000000pt" viewBox="0 0 32.000000 32.000000"
 preserveAspectRatio="xMidYMid meet">

<g transform="translate(0.000000,32.000000) scale(0.100000,-0.100000)"
fill="#000000" stroke="none">
<path d="M214 219 c-3 -5 2 -9 10 -9 9 0 16 -4 16 -10 0 -14 -7 -13 -35 6 -45
30 -111 -6 -124 -66 -6 -31 -10 -35 -36 -33 -29 3 -29 3 -6 -7 14 -6 31 -8 38
-5 8 2 25 -2 38 -11 29 -19 71 -15 67 6 -3 11 1 10 16 -3 11 -10 32 -17 51
-15 33 2 41 12 16 22 -26 10 -16 26 15 26 22 0 30 5 30 18 0 10 -4 22 -9 28
-5 5 -11 20 -13 34 -2 20 -9 25 -36 26 -18 1 -35 -2 -38 -7z"/>
</g>
</svg>
