<?xml version="1.0" standalone="no"?>
<!DOCTYPE svg PUBLIC "-//W3C//DTD SVG 20010904//EN"
 "http://www.w3.org/TR/2001/REC-SVG-20010904/DTD/svg10.dtd">
<svg version="1.0" xmlns="http://www.w3.org/2000/svg"
 width="32.000000pt" height="32.000000pt" viewBox="0 0 32.000000 32.000000"
 preserveAspectRatio="xMidYMid meet">

<g transform="translate(0.000000,32.000000) scale(0.100000,-0.100000)"
fill="#000000" stroke="none">
<path d="M53 214 c-24 -14 -43 -30 -43 -35 0 -6 4 -8 9 -4 6 3 18 -17 28 -45
15 -42 22 -50 42 -50 20 0 22 3 13 12 -19 19 -14 23 33 23 36 0 45 -3 45 -17
0 -10 4 -18 10 -18 5 0 7 8 4 18 -5 16 -5 16 6 -1 16 -25 31 -21 24 8 -6 24 6
32 39 26 4 -1 17 4 29 10 20 11 20 12 4 21 -13 7 -16 17 -11 35 5 21 3 24 -13
19 -11 -4 -46 0 -78 9 -78 20 -92 19 -141 -11z"/>
</g>
</svg>
