<?xml version="1.0" standalone="no"?>
<!DOCTYPE svg PUBLIC "-//W3C//DTD SVG 20010904//EN"
 "http://www.w3.org/TR/2001/REC-SVG-20010904/DTD/svg10.dtd">
<svg version="1.0" xmlns="http://www.w3.org/2000/svg"
 width="32.000000pt" height="32.000000pt" viewBox="0 0 32.000000 32.000000"
 preserveAspectRatio="xMidYMid meet">

<g transform="translate(0.000000,32.000000) scale(0.100000,-0.100000)"
fill="#000000" stroke="none">
<path d="M182 302 c-10 -7 -10 -15 -2 -36 16 -43 12 -54 -22 -61 -49 -11 -94
-42 -106 -73 -31 -83 -20 -105 61 -116 43 -5 48 -4 43 12 -4 11 2 22 15 30 12
8 22 12 23 10 1 -2 7 -15 14 -30 17 -39 41 -36 40 5 -2 54 14 131 30 149 13
16 13 20 -2 43 -9 14 -22 25 -28 25 -7 0 -21 11 -33 25 -13 16 -24 22 -33 17z"/>
</g>
</svg>
