<?xml version="1.0" standalone="no"?>
<!DOCTYPE svg PUBLIC "-//W3C//DTD SVG 20010904//EN"
 "http://www.w3.org/TR/2001/REC-SVG-20010904/DTD/svg10.dtd">
<svg version="1.0" xmlns="http://www.w3.org/2000/svg"
 width="32.000000pt" height="32.000000pt" viewBox="0 0 32.000000 32.000000"
 preserveAspectRatio="xMidYMid meet">

<g transform="translate(0.000000,32.000000) scale(0.100000,-0.100000)"
fill="#000000" stroke="none">
<path d="M129 216 c-2 -3 -24 -7 -48 -10 -53 -6 -76 -24 -43 -33 18 -4 20 -8
11 -19 -10 -12 -8 -13 7 -7 17 6 18 5 4 -13 -14 -17 -14 -18 1 -6 18 14 100
12 92 -2 -8 -12 40 4 57 20 12 12 11 17 -6 41 -19 25 -62 42 -75 29z"/>
<path d="M270 146 c0 -2 8 -10 18 -17 15 -13 16 -12 3 4 -13 16 -21 21 -21 13z"/>
<path d="M279 83 c-13 -16 -12 -17 4 -4 9 7 17 15 17 17 0 8 -8 3 -21 -13z"/>
</g>
</svg>
