<?xml version="1.0" standalone="no"?>
<!DOCTYPE svg PUBLIC "-//W3C//DTD SVG 20010904//EN"
 "http://www.w3.org/TR/2001/REC-SVG-20010904/DTD/svg10.dtd">
<svg version="1.0" xmlns="http://www.w3.org/2000/svg"
 width="44.000000pt" height="32.000000pt" viewBox="0 0 44.000000 32.000000"
 preserveAspectRatio="xMidYMid meet">

<g transform="translate(0.000000,32.000000) scale(0.100000,-0.100000)"
fill="#000000" stroke="none">
<path d="M71 276 c-18 -22 -2 -45 40 -56 42 -12 48 -23 24 -46 -19 -19 -19
-44 -1 -44 8 0 16 -6 19 -14 8 -21 112 -35 167 -22 22 5 80 60 80 77 0 3 -11
11 -25 17 -26 12 -32 26 -15 37 31 19 -8 51 -66 53 -26 1 -49 4 -52 6 -2 2
-18 -2 -36 -9 -29 -12 -36 -12 -52 0 -24 18 -68 19 -83 1z m102 -59 c-4 -19
-8 -25 -13 -16 -5 7 -3 20 3 30 15 23 16 20 10 -14z m-3 -47 c0 -5 -8 -10 -17
-10 -15 0 -16 2 -3 10 19 12 20 12 20 0z"/>
<path d="M30 225 c-8 -9 -8 -15 -2 -15 12 0 26 19 19 26 -2 2 -10 -2 -17 -11z"/>
<path d="M374 225 c-4 -9 -2 -21 4 -27 15 -15 44 -1 40 19 -4 23 -36 29 -44 8z"/>
<path d="M56 205 c-20 -54 11 -79 51 -39 27 28 23 39 -18 49 -19 5 -28 2 -33
-10z"/>
<path d="M200 56 c0 -14 5 -26 10 -26 6 0 10 9 10 19 0 11 -4 23 -10 26 -6 4
-10 -5 -10 -19z"/>
<path d="M297 73 c-11 -10 -8 -43 3 -43 6 0 10 11 10 25 0 26 -2 29 -13 18z"/>
</g>
</svg>
